<mxfile host="app.diagrams.net" modified="2024-03-30T12:50:22.031Z" agent="Mozilla/5.0 (Windows NT 10.0; Win64; x64) AppleWebKit/537.36 (KHTML, like Gecko) Chrome/122.0.0.0 Safari/537.36 Edg/122.0.0.0" etag="1TZYorL2nwhWZbIUDE5Z" version="24.2.0" type="github">
  <diagram name="Page-1" id="13e1069c-82ec-6db2-03f1-153e76fe0fe0">
    <mxGraphModel dx="1236" dy="709" grid="1" gridSize="10" guides="1" tooltips="1" connect="1" arrows="1" fold="1" page="1" pageScale="1" pageWidth="1100" pageHeight="850" background="none" math="0" shadow="0">
      <root>
        <mxCell id="0" />
        <mxCell id="1" parent="0" />
        <mxCell id="canKTwCSgxvvIPsZ8-hY-15" value="educational resource" style="shape=umlLifeline;perimeter=lifelinePerimeter;whiteSpace=wrap;html=1;container=1;dropTarget=0;collapsible=0;recursiveResize=0;outlineConnect=0;portConstraint=eastwest;newEdgeStyle={&quot;curved&quot;:0,&quot;rounded&quot;:0};" vertex="1" parent="1">
          <mxGeometry x="340" y="70" width="100" height="260" as="geometry" />
        </mxCell>
        <mxCell id="canKTwCSgxvvIPsZ8-hY-68" value="" style="html=1;points=[[0,0,0,0,5],[0,1,0,0,-5],[1,0,0,0,5],[1,1,0,0,-5]];perimeter=orthogonalPerimeter;outlineConnect=0;targetShapes=umlLifeline;portConstraint=eastwest;newEdgeStyle={&quot;curved&quot;:0,&quot;rounded&quot;:0};" vertex="1" parent="canKTwCSgxvvIPsZ8-hY-15">
          <mxGeometry x="45" y="220" width="10" height="40" as="geometry" />
        </mxCell>
        <mxCell id="canKTwCSgxvvIPsZ8-hY-16" value="AI/model" style="shape=umlLifeline;perimeter=lifelinePerimeter;whiteSpace=wrap;html=1;container=1;dropTarget=0;collapsible=0;recursiveResize=0;outlineConnect=0;portConstraint=eastwest;newEdgeStyle={&quot;curved&quot;:0,&quot;rounded&quot;:0};" vertex="1" parent="1">
          <mxGeometry x="210" y="70" width="100" height="740" as="geometry" />
        </mxCell>
        <mxCell id="canKTwCSgxvvIPsZ8-hY-42" value="" style="html=1;points=[[0,0,0,0,5],[0,1,0,0,-5],[1,0,0,0,5],[1,1,0,0,-5]];perimeter=orthogonalPerimeter;outlineConnect=0;targetShapes=umlLifeline;portConstraint=eastwest;newEdgeStyle={&quot;curved&quot;:0,&quot;rounded&quot;:0};" vertex="1" parent="canKTwCSgxvvIPsZ8-hY-16">
          <mxGeometry x="45" y="90" width="10" height="40" as="geometry" />
        </mxCell>
        <mxCell id="canKTwCSgxvvIPsZ8-hY-43" value="" style="html=1;points=[[0,0,0,0,5],[0,1,0,0,-5],[1,0,0,0,5],[1,1,0,0,-5]];perimeter=orthogonalPerimeter;outlineConnect=0;targetShapes=umlLifeline;portConstraint=eastwest;newEdgeStyle={&quot;curved&quot;:0,&quot;rounded&quot;:0};" vertex="1" parent="canKTwCSgxvvIPsZ8-hY-16">
          <mxGeometry x="45" y="420" width="10" height="60" as="geometry" />
        </mxCell>
        <mxCell id="canKTwCSgxvvIPsZ8-hY-44" value="" style="html=1;points=[[0,0,0,0,5],[0,1,0,0,-5],[1,0,0,0,5],[1,1,0,0,-5]];perimeter=orthogonalPerimeter;outlineConnect=0;targetShapes=umlLifeline;portConstraint=eastwest;newEdgeStyle={&quot;curved&quot;:0,&quot;rounded&quot;:0};" vertex="1" parent="canKTwCSgxvvIPsZ8-hY-16">
          <mxGeometry x="55" y="430" width="10" height="40" as="geometry" />
        </mxCell>
        <mxCell id="canKTwCSgxvvIPsZ8-hY-53" value="" style="html=1;points=[[0,0,0,0,5],[0,1,0,0,-5],[1,0,0,0,5],[1,1,0,0,-5]];perimeter=orthogonalPerimeter;outlineConnect=0;targetShapes=umlLifeline;portConstraint=eastwest;newEdgeStyle={&quot;curved&quot;:0,&quot;rounded&quot;:0};" vertex="1" parent="canKTwCSgxvvIPsZ8-hY-16">
          <mxGeometry x="45" y="530" width="10" height="80" as="geometry" />
        </mxCell>
        <mxCell id="canKTwCSgxvvIPsZ8-hY-63" value="" style="html=1;points=[[0,0,0,0,5],[0,1,0,0,-5],[1,0,0,0,5],[1,1,0,0,-5]];perimeter=orthogonalPerimeter;outlineConnect=0;targetShapes=umlLifeline;portConstraint=eastwest;newEdgeStyle={&quot;curved&quot;:0,&quot;rounded&quot;:0};" vertex="1" parent="canKTwCSgxvvIPsZ8-hY-16">
          <mxGeometry x="45" y="660" width="10" height="80" as="geometry" />
        </mxCell>
        <mxCell id="canKTwCSgxvvIPsZ8-hY-79" value="" style="html=1;points=[[0,0,0,0,5],[0,1,0,0,-5],[1,0,0,0,5],[1,1,0,0,-5]];perimeter=orthogonalPerimeter;outlineConnect=0;targetShapes=umlLifeline;portConstraint=eastwest;newEdgeStyle={&quot;curved&quot;:0,&quot;rounded&quot;:0};" vertex="1" parent="canKTwCSgxvvIPsZ8-hY-16">
          <mxGeometry x="45" y="770" width="10" height="120" as="geometry" />
        </mxCell>
        <mxCell id="canKTwCSgxvvIPsZ8-hY-17" value="Ask a problem" style="html=1;verticalAlign=bottom;startArrow=oval;startFill=1;endArrow=block;startSize=8;curved=0;rounded=0;" edge="1" parent="1" source="canKTwCSgxvvIPsZ8-hY-19">
          <mxGeometry width="60" relative="1" as="geometry">
            <mxPoint x="100" y="160" as="sourcePoint" />
            <mxPoint x="259.5" y="160" as="targetPoint" />
          </mxGeometry>
        </mxCell>
        <mxCell id="canKTwCSgxvvIPsZ8-hY-18" value="Rephrase the question.&lt;div&gt;&amp;nbsp;and ask again.&lt;/div&gt;" style="endArrow=open;endSize=12;dashed=1;html=1;rounded=0;" edge="1" parent="1" target="canKTwCSgxvvIPsZ8-hY-19">
          <mxGeometry width="160" relative="1" as="geometry">
            <mxPoint x="260" y="200" as="sourcePoint" />
            <mxPoint x="100" y="200" as="targetPoint" />
          </mxGeometry>
        </mxCell>
        <mxCell id="canKTwCSgxvvIPsZ8-hY-19" value="" style="shape=umlLifeline;perimeter=lifelinePerimeter;whiteSpace=wrap;html=1;container=1;dropTarget=0;collapsible=0;recursiveResize=0;outlineConnect=0;portConstraint=eastwest;newEdgeStyle={&quot;curved&quot;:0,&quot;rounded&quot;:0};participant=umlActor;" vertex="1" parent="1">
          <mxGeometry x="80" y="70" width="30" height="890" as="geometry" />
        </mxCell>
        <mxCell id="canKTwCSgxvvIPsZ8-hY-20" value="student" style="text;html=1;align=center;verticalAlign=middle;resizable=0;points=[];autosize=1;strokeColor=none;fillColor=none;" vertex="1" parent="1">
          <mxGeometry x="90" y="78" width="60" height="30" as="geometry" />
        </mxCell>
        <mxCell id="canKTwCSgxvvIPsZ8-hY-22" value="peer" style="text;html=1;align=center;verticalAlign=middle;resizable=0;points=[];autosize=1;strokeColor=none;fillColor=none;" vertex="1" parent="1">
          <mxGeometry x="40" y="78" width="50" height="30" as="geometry" />
        </mxCell>
        <mxCell id="canKTwCSgxvvIPsZ8-hY-24" value="give possible&amp;nbsp;&lt;div&gt;solution&lt;/div&gt;" style="html=1;verticalAlign=bottom;startArrow=oval;startFill=1;endArrow=block;startSize=8;curved=0;rounded=0;" edge="1" parent="1" source="canKTwCSgxvvIPsZ8-hY-19">
          <mxGeometry x="0.0029" width="60" relative="1" as="geometry">
            <mxPoint x="100.00000000000001" y="290" as="sourcePoint" />
            <mxPoint x="260" y="290" as="targetPoint" />
            <mxPoint as="offset" />
          </mxGeometry>
        </mxCell>
        <mxCell id="canKTwCSgxvvIPsZ8-hY-25" value="Reorder the question.&lt;div&gt;&amp;nbsp;and ask again.&lt;/div&gt;" style="endArrow=open;endSize=12;dashed=1;html=1;rounded=0;entryX=0.333;entryY=0.448;entryDx=0;entryDy=0;entryPerimeter=0;" edge="1" parent="1">
          <mxGeometry width="160" relative="1" as="geometry">
            <mxPoint x="265" y="359.50000000000006" as="sourcePoint" />
            <mxPoint x="95.49000000000001" y="359.50000000000006" as="targetPoint" />
          </mxGeometry>
        </mxCell>
        <mxCell id="canKTwCSgxvvIPsZ8-hY-26" value="loop" style="shape=umlFrame;whiteSpace=wrap;html=1;pointerEvents=0;" vertex="1" parent="1">
          <mxGeometry x="80" y="230" width="190" height="160" as="geometry" />
        </mxCell>
        <mxCell id="canKTwCSgxvvIPsZ8-hY-31" value="" style="html=1;points=[[0,0,0,0,5],[0,1,0,0,-5],[1,0,0,0,5],[1,1,0,0,-5]];perimeter=orthogonalPerimeter;outlineConnect=0;targetShapes=umlLifeline;portConstraint=eastwest;newEdgeStyle={&quot;curved&quot;:0,&quot;rounded&quot;:0};" vertex="1" parent="1">
          <mxGeometry x="255" y="290" width="10" height="80" as="geometry" />
        </mxCell>
        <mxCell id="canKTwCSgxvvIPsZ8-hY-34" value="fact check" style="html=1;verticalAlign=bottom;endArrow=block;curved=0;rounded=0;" edge="1" parent="1" target="canKTwCSgxvvIPsZ8-hY-15">
          <mxGeometry width="80" relative="1" as="geometry">
            <mxPoint x="255" y="290" as="sourcePoint" />
            <mxPoint x="335" y="290" as="targetPoint" />
          </mxGeometry>
        </mxCell>
        <mxCell id="canKTwCSgxvvIPsZ8-hY-37" value="suggestion&lt;div&gt;&quot;what if&quot;&lt;/div&gt;&lt;div&gt;questions&lt;/div&gt;" style="endArrow=open;endSize=12;dashed=1;html=1;rounded=0;entryX=0.333;entryY=0.448;entryDx=0;entryDy=0;entryPerimeter=0;" edge="1" parent="1">
          <mxGeometry width="160" relative="1" as="geometry">
            <mxPoint x="265" y="320" as="sourcePoint" />
            <mxPoint x="95" y="320" as="targetPoint" />
          </mxGeometry>
        </mxCell>
        <mxCell id="canKTwCSgxvvIPsZ8-hY-39" value="give validation" style="html=1;verticalAlign=bottom;endArrow=open;dashed=1;endSize=8;curved=0;rounded=0;" edge="1" parent="1" source="canKTwCSgxvvIPsZ8-hY-15">
          <mxGeometry relative="1" as="geometry">
            <mxPoint x="350" y="330" as="sourcePoint" />
            <mxPoint x="270" y="330" as="targetPoint" />
          </mxGeometry>
        </mxCell>
        <mxCell id="canKTwCSgxvvIPsZ8-hY-40" value="Want to reach out&lt;div&gt;peer&lt;/div&gt;" style="html=1;verticalAlign=bottom;endArrow=block;curved=0;rounded=0;" edge="1" parent="1" target="canKTwCSgxvvIPsZ8-hY-16">
          <mxGeometry width="80" relative="1" as="geometry">
            <mxPoint x="100" y="490" as="sourcePoint" />
            <mxPoint x="230.5" y="490" as="targetPoint" />
          </mxGeometry>
        </mxCell>
        <mxCell id="canKTwCSgxvvIPsZ8-hY-48" value="Database of users" style="shape=umlLifeline;perimeter=lifelinePerimeter;whiteSpace=wrap;html=1;container=1;dropTarget=0;collapsible=0;recursiveResize=0;outlineConnect=0;portConstraint=eastwest;newEdgeStyle={&quot;curved&quot;:0,&quot;rounded&quot;:0};" vertex="1" parent="1">
          <mxGeometry x="460" y="70" width="100" height="460" as="geometry" />
        </mxCell>
        <mxCell id="canKTwCSgxvvIPsZ8-hY-69" value="" style="html=1;points=[[0,0,0,0,5],[0,1,0,0,-5],[1,0,0,0,5],[1,1,0,0,-5]];perimeter=orthogonalPerimeter;outlineConnect=0;targetShapes=umlLifeline;portConstraint=eastwest;newEdgeStyle={&quot;curved&quot;:0,&quot;rounded&quot;:0};" vertex="1" parent="canKTwCSgxvvIPsZ8-hY-48">
          <mxGeometry x="40" y="430" width="10" height="30" as="geometry" />
        </mxCell>
        <mxCell id="canKTwCSgxvvIPsZ8-hY-49" value="find a peer (requirement)" style="html=1;verticalAlign=bottom;endArrow=block;curved=0;rounded=0;" edge="1" parent="1" target="canKTwCSgxvvIPsZ8-hY-48">
          <mxGeometry x="0.0021" width="80" relative="1" as="geometry">
            <mxPoint x="270" y="500" as="sourcePoint" />
            <mxPoint x="350" y="500" as="targetPoint" />
            <mxPoint as="offset" />
          </mxGeometry>
        </mxCell>
        <mxCell id="canKTwCSgxvvIPsZ8-hY-50" value="return the peer." style="html=1;verticalAlign=bottom;endArrow=open;dashed=1;endSize=8;curved=0;rounded=0;" edge="1" parent="1">
          <mxGeometry relative="1" as="geometry">
            <mxPoint x="510" y="530" as="sourcePoint" />
            <mxPoint x="280" y="530" as="targetPoint" />
          </mxGeometry>
        </mxCell>
        <mxCell id="canKTwCSgxvvIPsZ8-hY-51" value="found a peer." style="html=1;verticalAlign=bottom;endArrow=open;dashed=1;endSize=8;curved=0;rounded=0;" edge="1" parent="1" target="canKTwCSgxvvIPsZ8-hY-19">
          <mxGeometry x="-0.0031" relative="1" as="geometry">
            <mxPoint x="255" y="530" as="sourcePoint" />
            <mxPoint x="175" y="530" as="targetPoint" />
            <mxPoint as="offset" />
          </mxGeometry>
        </mxCell>
        <mxCell id="canKTwCSgxvvIPsZ8-hY-52" value="communicate&lt;div&gt;voice/text/video&lt;/div&gt;" style="html=1;verticalAlign=bottom;endArrow=block;curved=0;rounded=0;" edge="1" parent="1" target="canKTwCSgxvvIPsZ8-hY-16">
          <mxGeometry width="80" relative="1" as="geometry">
            <mxPoint x="100" y="600" as="sourcePoint" />
            <mxPoint x="170" y="600" as="targetPoint" />
          </mxGeometry>
        </mxCell>
        <mxCell id="canKTwCSgxvvIPsZ8-hY-58" value="communicate as the user." style="html=1;verticalAlign=bottom;endArrow=block;curved=0;rounded=0;" edge="1" parent="1" target="canKTwCSgxvvIPsZ8-hY-21">
          <mxGeometry width="80" relative="1" as="geometry">
            <mxPoint x="255" y="660" as="sourcePoint" />
            <mxPoint x="175" y="660" as="targetPoint" />
          </mxGeometry>
        </mxCell>
        <mxCell id="canKTwCSgxvvIPsZ8-hY-59" value="loop" style="shape=umlFrame;whiteSpace=wrap;html=1;pointerEvents=0;" vertex="1" parent="1">
          <mxGeometry x="30" y="560" width="350" height="420" as="geometry" />
        </mxCell>
        <mxCell id="canKTwCSgxvvIPsZ8-hY-64" value="Communicate&lt;div&gt;voice/text/video&lt;/div&gt;" style="html=1;verticalAlign=bottom;endArrow=block;curved=0;rounded=0;" edge="1" parent="1" source="canKTwCSgxvvIPsZ8-hY-21" target="canKTwCSgxvvIPsZ8-hY-63">
          <mxGeometry width="80" relative="1" as="geometry">
            <mxPoint x="50" y="740" as="sourcePoint" />
            <mxPoint x="130" y="740" as="targetPoint" />
          </mxGeometry>
        </mxCell>
        <mxCell id="canKTwCSgxvvIPsZ8-hY-66" value="Translate to user&#39;s&lt;div&gt;language&lt;/div&gt;" style="html=1;verticalAlign=bottom;endArrow=block;rounded=0;edgeStyle=orthogonalEdgeStyle;" edge="1" parent="1">
          <mxGeometry x="0.4194" y="11" width="80" relative="1" as="geometry">
            <mxPoint x="265" y="740" as="sourcePoint" />
            <mxPoint x="270" y="800" as="targetPoint" />
            <Array as="points">
              <mxPoint x="265" y="770" />
              <mxPoint x="315" y="770" />
              <mxPoint x="315" y="800" />
            </Array>
            <mxPoint x="5" y="-1" as="offset" />
          </mxGeometry>
        </mxCell>
        <mxCell id="canKTwCSgxvvIPsZ8-hY-67" value="Communicate ad&amp;nbsp; peer" style="html=1;verticalAlign=bottom;endArrow=block;curved=0;rounded=0;" edge="1" parent="1" target="canKTwCSgxvvIPsZ8-hY-19">
          <mxGeometry width="80" relative="1" as="geometry">
            <mxPoint x="265" y="800" as="sourcePoint" />
            <mxPoint x="185" y="800" as="targetPoint" />
          </mxGeometry>
        </mxCell>
        <mxCell id="canKTwCSgxvvIPsZ8-hY-21" value="" style="shape=umlLifeline;perimeter=lifelinePerimeter;whiteSpace=wrap;html=1;container=1;dropTarget=0;collapsible=0;recursiveResize=0;outlineConnect=0;portConstraint=eastwest;newEdgeStyle={&quot;curved&quot;:0,&quot;rounded&quot;:0};participant=umlActor;" vertex="1" parent="1">
          <mxGeometry x="30" y="70" width="30" height="670" as="geometry" />
        </mxCell>
        <mxCell id="canKTwCSgxvvIPsZ8-hY-71" value="Policy&lt;div&gt;and regulations&lt;/div&gt;" style="shape=umlLifeline;perimeter=lifelinePerimeter;whiteSpace=wrap;html=1;container=1;dropTarget=0;collapsible=0;recursiveResize=0;outlineConnect=0;portConstraint=eastwest;newEdgeStyle={&quot;curved&quot;:0,&quot;rounded&quot;:0};" vertex="1" parent="1">
          <mxGeometry x="580" y="70" width="100" height="800" as="geometry" />
        </mxCell>
        <mxCell id="canKTwCSgxvvIPsZ8-hY-72" value="" style="html=1;points=[[0,0,0,0,5],[0,1,0,0,-5],[1,0,0,0,5],[1,1,0,0,-5]];perimeter=orthogonalPerimeter;outlineConnect=0;targetShapes=umlLifeline;portConstraint=eastwest;newEdgeStyle={&quot;curved&quot;:0,&quot;rounded&quot;:0};" vertex="1" parent="canKTwCSgxvvIPsZ8-hY-71">
          <mxGeometry x="45" y="520" width="10" height="60" as="geometry" />
        </mxCell>
        <mxCell id="canKTwCSgxvvIPsZ8-hY-73" value="check for any policy violations" style="html=1;verticalAlign=bottom;startArrow=oval;startFill=1;endArrow=block;startSize=8;curved=0;rounded=0;" edge="1" parent="1" target="canKTwCSgxvvIPsZ8-hY-71">
          <mxGeometry width="60" relative="1" as="geometry">
            <mxPoint x="270" y="600" as="sourcePoint" />
            <mxPoint x="330" y="600" as="targetPoint" />
          </mxGeometry>
        </mxCell>
        <mxCell id="canKTwCSgxvvIPsZ8-hY-74" value="validation" style="html=1;verticalAlign=bottom;endArrow=open;dashed=1;endSize=8;curved=0;rounded=0;" edge="1" parent="1" target="canKTwCSgxvvIPsZ8-hY-53">
          <mxGeometry relative="1" as="geometry">
            <mxPoint x="630" y="640" as="sourcePoint" />
            <mxPoint x="480" y="640" as="targetPoint" />
          </mxGeometry>
        </mxCell>
        <mxCell id="canKTwCSgxvvIPsZ8-hY-75" value="&amp;nbsp;[until solution found]" style="text;html=1;align=center;verticalAlign=middle;resizable=0;points=[];autosize=1;strokeColor=none;fillColor=none;" vertex="1" parent="1">
          <mxGeometry x="130" y="228" width="130" height="30" as="geometry" />
        </mxCell>
        <mxCell id="canKTwCSgxvvIPsZ8-hY-77" value="ask for collaborating&amp;nbsp;&lt;div&gt;on a project&lt;/div&gt;" style="html=1;verticalAlign=bottom;endArrow=block;curved=0;rounded=0;" edge="1" parent="1" target="canKTwCSgxvvIPsZ8-hY-16">
          <mxGeometry x="0.0031" y="-10" width="80" relative="1" as="geometry">
            <mxPoint x="100" y="840" as="sourcePoint" />
            <mxPoint x="180" y="840" as="targetPoint" />
            <mxPoint as="offset" />
          </mxGeometry>
        </mxCell>
        <mxCell id="canKTwCSgxvvIPsZ8-hY-78" value="Translate to peer&#39;s&amp;nbsp;&lt;div&gt;language&lt;/div&gt;" style="html=1;verticalAlign=bottom;endArrow=block;rounded=0;edgeStyle=orthogonalEdgeStyle;entryX=1;entryY=1;entryDx=0;entryDy=-5;entryPerimeter=0;" edge="1" parent="1" target="canKTwCSgxvvIPsZ8-hY-53">
          <mxGeometry x="0.2143" y="5" width="80" relative="1" as="geometry">
            <mxPoint x="270" y="640" as="sourcePoint" />
            <mxPoint x="275" y="700" as="targetPoint" />
            <Array as="points">
              <mxPoint x="320" y="640" />
              <mxPoint x="320" y="675" />
            </Array>
            <mxPoint as="offset" />
          </mxGeometry>
        </mxCell>
        <mxCell id="canKTwCSgxvvIPsZ8-hY-82" value="do you accept&lt;div&gt;the project collaboration&lt;/div&gt;" style="html=1;verticalAlign=bottom;endArrow=open;dashed=1;endSize=8;curved=0;rounded=0;" edge="1" parent="1" target="canKTwCSgxvvIPsZ8-hY-21">
          <mxGeometry x="0.0209" y="10" relative="1" as="geometry">
            <mxPoint x="260" y="880" as="sourcePoint" />
            <mxPoint x="180" y="880" as="targetPoint" />
            <mxPoint as="offset" />
          </mxGeometry>
        </mxCell>
        <mxCell id="canKTwCSgxvvIPsZ8-hY-83" value="check for any policy violations" style="html=1;verticalAlign=bottom;startArrow=oval;startFill=1;endArrow=block;startSize=8;curved=0;rounded=0;" edge="1" parent="1">
          <mxGeometry width="60" relative="1" as="geometry">
            <mxPoint x="270" y="740" as="sourcePoint" />
            <mxPoint x="630" y="740" as="targetPoint" />
          </mxGeometry>
        </mxCell>
        <mxCell id="canKTwCSgxvvIPsZ8-hY-84" value="validation" style="html=1;verticalAlign=bottom;endArrow=open;dashed=1;endSize=8;curved=0;rounded=0;" edge="1" parent="1">
          <mxGeometry relative="1" as="geometry">
            <mxPoint x="630" y="770" as="sourcePoint" />
            <mxPoint x="265" y="770" as="targetPoint" />
          </mxGeometry>
        </mxCell>
        <mxCell id="canKTwCSgxvvIPsZ8-hY-87" value="task user&lt;div&gt;should do&amp;nbsp;&lt;/div&gt;" style="html=1;verticalAlign=bottom;endArrow=open;dashed=1;endSize=8;curved=0;rounded=0;" edge="1" parent="1">
          <mxGeometry x="-0.0323" y="10" relative="1" as="geometry">
            <mxPoint x="252.5" y="920" as="sourcePoint" />
            <mxPoint x="97.5" y="920" as="targetPoint" />
            <mxPoint as="offset" />
          </mxGeometry>
        </mxCell>
        <mxCell id="canKTwCSgxvvIPsZ8-hY-88" value="task peer&lt;div&gt;should do&amp;nbsp;&lt;/div&gt;" style="html=1;verticalAlign=bottom;endArrow=open;dashed=1;endSize=8;curved=0;rounded=0;" edge="1" parent="1">
          <mxGeometry x="0.0431" y="20" relative="1" as="geometry">
            <mxPoint x="265" y="950" as="sourcePoint" />
            <mxPoint x="44.5" y="950" as="targetPoint" />
            <mxPoint as="offset" />
          </mxGeometry>
        </mxCell>
      </root>
    </mxGraphModel>
  </diagram>
</mxfile>
